HIERARCHY
ROOT Hips
{
  OFFSET 0.000000 0.000000 0.000000
  CHANNELS 6 Xposition Yposition Zposition Xrotation Yrotation Zrotation
  JOINT Spine
  {
    OFFSET 1.471354 23.290033 -6.106481
    CHANNELS 3 Xrotation Yrotation Zrotation
    JOINT Chest
    {
      OFFSET 1.471354 23.290033 -6.106481
      CHANNELS 3 Xrotation Yrotation Zrotation
      JOINT Neck
      {
        OFFSET -2.554482 8.383535 -1.440578
        CHANNELS 3 Xrotation Yrotation Zrotation
        JOINT Head
        {
          OFFSET -6.488949 6.596687 -1.313551
          CHANNELS 3 Xrotation Yrotation Zrotation
          End Site
          {
            OFFSET -1.946685 1.979006 -0.394065
          }
        }
      }
      JOINT LeftShoulder
      {
        OFFSET 4.445460 -1.571870 -16.227993
        CHANNELS 3 Xrotation Yrotation Zrotation
        JOINT LeftArm
        {
          OFFSET -5.835221 -22.551993 -2.146173
          CHANNELS 3 Xrotation Yrotation Zrotation
          JOINT LeftForeArm
          {
            OFFSET -12.437178 -19.553858 5.324733
            CHANNELS 3 Xrotation Yrotation Zrotation
            JOINT LeftHand
            {
              OFFSET -3.243800 -4.801626 -2.197453
              CHANNELS 3 Xrotation Yrotation Zrotation
              End Site
              {
                OFFSET -0.973140 -1.440488 -0.659236
              }
            }
          }
        }
      }
      JOINT RightShoulder
      {
        OFFSET -4.445460 1.571870 16.227993
        CHANNELS 3 Xrotation Yrotation Zrotation
        JOINT RightArm
        {
          OFFSET 15.000000 -5.000000 0.000000
          CHANNELS 3 Xrotation Yrotation Zrotation
          JOINT RightForeArm
          {
            OFFSET 12.000000 -8.000000 0.000000
            CHANNELS 3 Xrotation Yrotation Zrotation
            JOINT RightHand
            {
              OFFSET 5.000000 -5.000000 0.000000
              CHANNELS 3 Xrotation Yrotation Zrotation
              End Site
              {
                OFFSET 1.500000 -1.500000 0.000000
              }
            }
          }
        }
      }
    }
  }
  JOINT LeftUpLeg
  {
    OFFSET 5.983835 -1.012600 -8.641845
    CHANNELS 3 Xrotation Yrotation Zrotation
    JOINT LeftLeg
    {
      OFFSET 2.259026 -41.160902 2.325652
      CHANNELS 3 Xrotation Yrotation Zrotation
      JOINT LeftFoot
      {
        OFFSET 27.481258 -16.640986 16.500056
        CHANNELS 3 Xrotation Yrotation Zrotation
        End Site
        {
          OFFSET 8.244378 -4.992296 4.950017
        }
      }
    }
  }
  JOINT RightUpLeg
  {
    OFFSET -5.983835 1.012600 8.641845
    CHANNELS 3 Xrotation Yrotation Zrotation
    JOINT RightLeg
    {
      OFFSET -9.973435 -38.659740 8.660418
      CHANNELS 3 Xrotation Yrotation Zrotation
      JOINT RightFoot
      {
        OFFSET -10.566743 -41.878031 2.772515
        CHANNELS 3 Xrotation Yrotation Zrotation
        End Site
        {
          OFFSET -3.170023 -12.563409 0.831755
        }
      }
    }
  }
}
MOTION
Frames: 19
Frame Time: 0.083333
0.000000 60.000000 0.000000 4.985583 0.471167 3.615134 0.000000 0.000000 0.000000 -8.304089 -2.208840 -8.063071 -0.874852 -8.776196 -4.814939 5.000000 0.000000 0.000000 -10.479611 5.312287 21.158070 40.261032 -17.879992 -4.247319 59.787546 -1.369661 -48.691610 0.000000 0.000000 0.000000 11.235749 -13.904503 -77.764746 -22.378788 -2.146697 70.149399 100.886489 13.064612 74.060689 0.000000 0.000000 0.000000 -4.693124 -0.341557 -6.609222 23.590149 5.843853 -43.643562 0.000000 0.000000 0.000000 4.357064 -0.686758 13.756585 -13.968814 8.097360 -1.266499 0.000000 0.000000 0.000000
0.000000 60.000000 0.000000 4.906481 0.510663 3.761656 0.000000 0.000000 0.000000 -8.254806 -2.240350 -8.214087 -0.880336 -8.798456 -4.795172 5.000000 0.000000 0.000000 -9.609484 5.058771 21.654126 40.105908 -18.148416 -4.960643 60.474598 -1.904752 -48.608466 0.000000 0.000000 0.000000 11.051950 -13.664172 -77.428379 -21.933654 -1.743429 70.010890 99.314695 13.404159 73.820237 0.000000 0.000000 0.000000 -4.610013 -0.395681 -6.882756 23.764088 6.339414 -43.778167 0.000000 0.000000 0.000000 4.479769 -0.789566 13.498739 -13.763310 7.894090 -1.466648 0.000000 0.000000 0.000000
0.000000 60.000000 0.000000 4.793121 0.575652 4.008479 0.000000 0.000000 0.000000 -8.174173 -2.270726 -8.421895 -0.895436 -8.790273 -4.777735 5.000000 0.000000 0.000000 -9.256325 4.917919 21.861103 39.767792 -18.217436 -5.370794 60.774039 -1.917285 -48.734191 0.000000 0.000000 0.000000 10.704402 -13.280120 -76.998332 -21.302587 -1.070235 69.894777 91.726290 12.457321 75.186725 0.000000 0.000000 0.000000 -4.430209 -0.440889 -6.979833 23.833292 6.487722 -43.825232 0.000000 0.000000 0.000000 4.687134 -0.849515 13.426370 -13.668479 7.786521 -1.641491 0.000000 0.000000 0.000000
0.000000 60.000000 0.000000 4.591485 0.610184 4.075019 0.000000 0.000000 0.000000 -7.949178 -2.271050 -8.399970 -0.924095 -8.739509 -4.803951 5.000000 0.000000 0.000000 -9.323723 4.925528 21.982830 39.967269 -18.435256 -5.464667 60.771654 -1.923718 -48.709168 0.000000 0.000000 0.000000 10.227631 -12.590924 -76.441863 -20.350446 -0.099827 69.879286 83.202939 11.156505 76.408183 0.000000 0.000000 0.000000 -4.386207 -0.450822 -6.984876 23.910613 6.714628 -43.874045 0.000000 0.000000 0.000000 4.754881 -0.863815 13.424796 -13.524388 7.649157 -1.767623 0.000000 0.000000 0.000000
0.000000 60.000000 0.000000 4.532087 0.614868 4.069488 0.000000 0.000000 0.000000 -7.874676 -2.256996 -8.334433 -0.943589 -8.717582 -4.824792 5.000000 0.000000 0.000000 -9.352202 4.924247 22.053951 40.092153 -18.559419 -5.561480 59.113571 -0.401212 -49.055638 0.000000 0.000000 0.000000 9.678369 -11.606461 -76.153961 -19.104384 0.706206 70.057438 77.134763 9.747903 77.638489 0.000000 0.000000 0.000000 -4.336364 -0.462707 -6.994466 23.958972 6.805596 -43.901478 0.000000 0.000000 0.000000 4.835519 -0.880797 13.423967 -13.492063 7.602137 -1.883190 0.000000 0.000000 0.000000
0.000000 60.000000 0.000000 4.463980 0.620120 4.062633 0.000000 0.000000 0.000000 -7.795044 -2.252870 -8.292049 -0.959946 -8.713343 -4.839591 5.000000 0.000000 0.000000 -9.323694 4.929978 22.073539 40.379054 -18.674054 -5.627555 56.726161 1.618303 -49.473281 0.000000 0.000000 0.000000 9.280115 -10.787074 -75.995340 -18.183264 1.246830 70.157730 74.962803 9.019754 78.315688 0.000000 0.000000 0.000000 -4.274644 -0.475965 -6.999528 24.014135 6.873331 -43.967723 0.000000 0.000000 0.000000 4.924359 -0.898727 13.425335 -13.492524 7.589537 -1.951511 0.000000 0.000000 0.000000
0.000000 60.000000 0.000000 4.388227 0.626324 4.056663 0.000000 0.000000 0.000000 -7.738104 -2.268809 -8.275301 -0.987434 -8.752062 -4.806788 5.000000 0.000000 0.000000 -9.195280 4.915664 22.104887 40.517451 -18.717897 -5.775829 55.158793 2.896881 -49.734064 0.000000 0.000000 0.000000 9.116938 -10.346615 -76.046289 -17.749798 1.424349 70.267308 76.154489 9.218906 78.169480 0.000000 0.000000 0.000000 -4.271952 -0.479584 -7.011955 24.057788 6.868740 -44.044503 0.000000 0.000000 0.000000 4.949314 -0.905764 13.424860 -13.532513 7.609375 -2.021839 0.000000 0.000000 0.000000
0.000000 60.000000 0.000000 4.372089 0.627511 4.054748 0.000000 0.000000 0.000000 -7.756228 -2.284840 -8.275113 -1.013765 -8.804921 -4.755135 5.000000 0.000000 0.000000 -8.929452 4.818550 22.146252 40.417370 -18.629732 -5.993109 53.638690 4.167335 -50.050483 0.000000 0.000000 0.000000 9.071025 -10.225425 -76.093886 -17.664479 1.383171 70.304659 76.777085 9.289357 78.152627 0.000000 0.000000 0.000000 -4.485209 -0.443465 -7.004721 24.087671 6.809599 -44.122146 0.000000 0.000000 0.000000 4.753937 -0.870235 13.437038 -13.588444 7.647405 -2.067361 0.000000 0.000000 0.000000
0.000000 60.000000 0.000000 4.574856 0.604170 4.040056 0.000000 0.000000 0.000000 -7.943893 -2.258052 -8.302687 -1.008875 -8.819393 -4.750338 5.000000 0.000000 0.000000 -8.719857 4.751977 22.103124 40.413203 -18.474813 -6.043479 53.186958 4.610522 -50.155546 0.000000 0.000000 0.000000 9.056163 -10.095080 -76.119049 -17.605668 1.320993 70.372783 77.416588 9.434148 78.081541 0.000000 0.000000 0.000000 -4.732721 -0.393076 -6.935258 24.082406 6.709456 -44.122724 0.000000 0.000000 0.000000 4.525936 -0.807402 13.526810 -13.663182 7.711002 -2.077598 0.000000 0.000000 0.000000
0.000000 60.000000 0.000000 4.810281 0.563683 3.961816 0.000000 0.000000 0.000000 -8.170010 -2.242475 -8.323978 -0.991281 -8.858445 -4.722334 5.000000 0.000000 0.000000 -8.611003 4.828596 21.906561 40.570228 -18.300206 -5.840758 53.515588 4.412916 -50.086928 0.000000 0.000000 0.000000 9.279475 -10.128621 -76.244465 -17.795608 1.160944 70.499679 77.957406 9.513644 78.061955 0.000000 0.000000 0.000000 -4.755083 -0.368624 -6.773881 24.078765 6.626084 -44.125141 0.000000 0.000000 0.000000 4.521329 -0.753244 13.724696 -13.705794 7.756895 -2.079624 0.000000 0.000000 0.000000
0.000000 60.000000 0.000000 4.822491 0.526725 3.798887 0.000000 0.000000 0.000000 -8.302480 -2.306200 -8.248852 -0.973289 -8.968475 -4.596812 5.000000 0.000000 0.000000 -8.567600 5.031791 21.771591 40.743490 -18.271069 -5.634460 53.854949 4.122992 -49.957011 0.000000 0.000000 0.000000 9.736552 -10.384815 -76.486013 -18.256184 0.948455 70.658258 78.237943 9.523859 78.110199 0.000000 0.000000 0.000000 -4.585932 -0.374344 -6.610125 24.094810 6.642781 -44.140446 0.000000 0.000000 0.000000 4.702430 -0.727537 13.930343 -13.672674 7.747711 -2.063156 0.000000 0.000000 0.000000
0.000000 60.000000 0.000000 4.644442 0.508086 3.636612 0.000000 0.000000 0.000000 -8.378260 -2.427147 -8.088298 -0.982386 -9.123198 -4.374400 5.000000 0.000000 0.000000 -8.754292 5.336215 21.721253 40.936335 -18.388582 -5.352095 56.378586 1.870105 -49.368039 0.000000 0.000000 0.000000 10.356519 -10.921291 -76.803119 -18.998654 0.644746 70.846479 78.703644 9.698048 77.915975 0.000000 0.000000 0.000000 -4.216387 -0.406644 -6.426111 24.108185 6.660251 -44.160802 0.000000 0.000000 0.000000 5.077944 -0.725167 14.154111 -13.608048 7.721617 -1.994149 0.000000 0.000000 0.000000
0.000000 60.000000 0.000000 4.269380 0.504357 3.460287 0.000000 0.000000 0.000000 -8.291647 -2.576231 -7.867286 -0.973153 -9.235999 -4.162002 5.000000 0.000000 0.000000 -9.194974 5.701718 21.698322 41.135417 -18.578352 -4.872329 58.926720 -0.384780 -48.987404 0.000000 0.000000 0.000000 11.023905 -11.624901 -77.122450 -19.867352 0.256498 71.017308 79.431844 10.046108 77.571202 0.000000 0.000000 0.000000 -3.675262 -0.459842 -6.236099 24.107003 6.656854 -44.165113 0.000000 0.000000 0.000000 5.620040 -0.745176 14.368869 -13.548608 7.698222 -1.904969 0.000000 0.000000 0.000000
0.000000 60.000000 0.000000 3.728306 0.514636 3.283749 0.000000 0.000000 0.000000 -8.013871 -2.734158 -7.637429 -0.967399 -9.332441 -3.978865 5.000000 0.000000 0.000000 -9.835327 6.111038 21.632442 41.541783 -18.816254 -4.221935 60.992494 -2.398228 -48.578321 0.000000 0.000000 0.000000 11.671201 -12.342681 -77.421984 -20.727359 -0.174666 71.153067 80.357083 10.462658 77.115662 0.000000 0.000000 0.000000 -2.938703 -0.531298 -6.002209 24.090512 6.628888 -44.168845 0.000000 0.000000 0.000000 6.348675 -0.780415 14.608354 -13.527726 7.703145 -1.824575 0.000000 0.000000 0.000000
0.000000 60.000000 0.000000 3.002393 0.535244 3.084467 0.000000 0.000000 0.000000 -7.525727 -2.907007 -7.395050 -0.967721 -9.410935 -3.795159 5.000000 0.000000 0.000000 -10.315341 6.399093 21.608438 41.659409 -18.937150 -3.807258 63.249691 -4.513369 -48.165502 0.000000 0.000000 0.000000 12.087909 -12.811062 -77.582841 -21.268757 -0.470026 71.193752 81.469276 10.850793 76.690972 0.000000 0.000000 0.000000 -2.222001 -0.609912 -5.856441 24.076141 6.611691 -44.172966 0.000000 0.000000 0.000000 7.056667 -0.838613 14.750497 -13.505888 7.694591 -1.796056 0.000000 0.000000 0.000000
0.000000 60.000000 0.000000 2.297417 0.572167 2.970882 0.000000 0.000000 0.000000 -6.978234 -3.051113 -7.253785 -0.980240 -9.461193 -3.655848 5.000000 0.000000 0.000000 -10.447665 6.524135 21.625976 41.535590 -18.941218 -3.695976 61.896162 -3.605828 -48.198927 0.000000 0.000000 0.000000 12.300129 -13.005940 -77.666694 -21.508800 -0.632042 71.201314 82.067575 11.033328 76.510917 0.000000 0.000000 0.000000 -1.752222 -0.659540 -5.757315 24.064536 6.580508 -44.190660 0.000000 0.000000 0.000000 7.517994 -0.876419 14.838419 -13.494254 7.689102 -1.792117 0.000000 0.000000 0.000000
0.000000 60.000000 0.000000 1.838667 0.597068 2.903476 0.000000 0.000000 0.000000 -6.614846 -3.144327 -7.177927 -1.012426 -9.511518 -3.537959 5.000000 0.000000 0.000000 -10.380836 6.575868 21.667916 41.449415 -18.945314 -3.764327 60.983521 -2.893220 -48.292536 0.000000 0.000000 0.000000 12.374408 -12.954094 -77.710148 -21.501215 -0.653535 71.204318 81.478839 10.865464 76.724928 0.000000 0.000000 0.000000 -1.562138 -0.676094 -5.701166 24.060098 6.573925 -44.203384 0.000000 0.000000 0.000000 7.701685 -0.886548 14.884052 -13.476209 7.677359 -1.782965 0.000000 0.000000 0.000000
0.000000 60.000000 0.000000 1.656299 0.604227 2.866188 0.000000 0.000000 0.000000 -6.516286 -3.197742 -7.133555 -1.065695 -9.580945 -3.411142 5.000000 0.000000 0.000000 -10.270924 6.546953 21.701877 41.466219 -18.950475 -3.913961 59.596910 -1.653696 -48.463949 0.000000 0.000000 0.000000 12.276846 -12.728023 -77.717514 -21.282454 -0.545237 71.252240 80.393142 10.517966 77.072206 0.000000 0.000000 0.000000 -1.594114 -0.668258 -5.682009 24.070663 6.613065 -44.223997 0.000000 0.000000 0.000000 7.665770 -0.877841 14.891210 -13.454207 7.657566 -1.794271 0.000000 0.000000 0.000000
0.000000 60.000000 0.000000 1.692453 0.598678 2.856874 0.000000 0.000000 0.000000 -6.557385 -3.196229 -7.130625 -1.100743 -9.616179 -3.366304 5.000000 0.000000 0.000000 -10.099022 6.461346 21.764437 41.616897 -18.996290 -4.228160 55.722476 1.731789 -49.113443 0.000000 0.000000 0.000000 12.115533 -12.476245 -77.710433 -21.007113 -0.362186 71.356964 78.554897 9.986725 77.561616 0.000000 0.000000 0.000000 -1.684101 -0.664762 -5.724495 24.098651 6.705018 -44.249289 0.000000 0.000000 0.000000 7.576861 -0.882267 14.842796 -13.427626 7.624643 -1.854921 0.000000 0.000000 0.000000
